<!--
  Zodiac Fonts — © 2025 Zodiac Fonts (https://zodiacfonts.com)
  Licensed under the SIL Open Font License 1.1 (OFL).
  Free for personal and commercial use with attribution.
-->
<svg class="zf-icon" xmlns="http://www.w3.org/2000/svg" viewBox="0 0 512 512">
      <path  d="M236.893,283.663C236.893,317.979,210.024,345.79,176.873,345.79S116.853,317.979,116.853,283.663  143.721,221.537,176.873,221.537C192.395,221.537,206.532,227.635,217.194,237.632  229.298,248.996,236.893,265.406,236.893,283.645Z" fill="none" stroke="currentColor" stroke-linecap="round" stroke-miterlimit="10" stroke-width="32"/>
      <path  d="M350.132,350.465C370.145,350.465,395.147,369.591,395.147,397.697S360.129,460.674,320.88,447.129C295.434,438.351,270.118,415.308,270.118,387.201L270.063,386.961C270.063,317.018,319.716,289.909,369.572,239.276  426.746,181.197,384.67,61.859,273.075,61.859  214.773,61.859,165.083,92.165,165.083,152.758  165.083,198.216,214.607,227.746,226.101,248.22" fill="none" stroke="currentColor" stroke-linecap="round" stroke-miterlimit="10" stroke-width="32"/>
</svg>
