<!--
  Zodiac Fonts — © 2025 Zodiac Fonts (https://zodiacfonts.com)
  Licensed under the SIL Open Font License 1.1 (OFL).
  Free for personal and commercial use with attribution.
-->
<svg class="zf-icon" xmlns="http://www.w3.org/2000/svg" viewBox="0 0 512 512">
          <path  d="M166.64,383.808L166.64,133.699C163.531,93.812,140.667,64.564,116.488,63.667  87.616,62.603,63.646,99.799,63.646,150.868" fill="none" stroke="currentColor" stroke-linecap="round" stroke-miterlimit="10" stroke-width="32"/>
          <path  d="M269.967,383.808L269.967,133.699C266.858,93.812,243.994,64.564,219.816,63.667  190.943,62.603,166.973,99.799,166.973,150.868" fill="none" stroke="currentColor" stroke-linecap="round" stroke-miterlimit="10" stroke-width="32"/>
          <path  d="M373.44,383.808L373.273,133.699C370.165,93.812,347.301,64.564,323.122,63.667  294.25,62.603,270.28,99.799,270.28,150.868" fill="none" stroke="currentColor" stroke-linecap="round" stroke-miterlimit="10" stroke-width="32"/>
        <path  d="M373.44,383.808C373.44,404.273,387.647,448.354,448.354,448.354" fill="none" stroke="currentColor" stroke-linecap="round" stroke-miterlimit="10" stroke-width="32"/>
      <path  d="M373.294,204.17C373.294,160.715,393.446,144.422,408.613,144.422  413.661,144.422,419.273,145.027,424.509,147.843  444.578,158.65,444.098,190.401,443.931,204.17  443.138,272.116,446.873,372.543,317.406,421.422" fill="none" stroke="currentColor" stroke-linecap="round" stroke-miterlimit="10" stroke-width="32"/>
</svg>
